<svg version="1.1" id="Layer_1" xmlns="http://www.w3.org/2000/svg" xmlns:xlink="http://www.w3.org/1999/xlink" x="0px" y="0px"
	 viewBox="0 0 16 16" style="enable-background:new 0 0 16 16;" xml:space="preserve">
<style type="text/css">
	.st0{fill:#fff;}
</style>
<path class="st0" d="M15.4,5.4L9,0.4C8.8,0.1,8.4,0,8,0c0,0,0,0,0,0C7.6,0,7.2,0.1,7,0.4l-6.3,5C0.2,5.7,0,6.2,0,6.7v1.2
	c0,0.6,0.3,1.2,0.9,1.5l6.3,3.4c0.5,0.3,1.1,0.3,1.6,0l3.6-1.9c0,0,0,0,0.1-0.1c0.1,0,0.1-0.1,0.1-0.1c0,0,0-0.1,0.1-0.1
	c0-0.1,0.1-0.1,0.1-0.2c0,0,0-0.1,0-0.1c0,0,0-0.1,0-0.1V7.8c0-0.9-0.8-1.7-1.7-1.7H5.7C4.7,6.1,4,6.9,4,7.8c0,0.4,0.3,0.8,0.8,0.8
	c0.4,0,0.8-0.3,0.8-0.8c0-0.1,0.1-0.1,0.1-0.1h5.5c0.1,0,0.1,0.1,0.1,0.1v1.9l-3.2,1.7c0,0-0.1,0-0.1,0L1.6,8c0,0-0.1-0.1-0.1-0.1
	V6.7c0,0,0-0.1,0-0.1l6.3-5c0,0,0.1,0,0.2,0l6.3,5c0,0,0,0.1,0,0.1v7.6c0,0.1-0.1,0.1-0.1,0.1H1.7c-0.1,0-0.1-0.1-0.1-0.1v-2.7
	c0-0.4-0.3-0.8-0.8-0.8c-0.4,0-0.8,0.3-0.8,0.8v2.7C0,15.2,0.8,16,1.7,16h12.6c0.9,0,1.7-0.8,1.7-1.7V6.7C16,6.2,15.8,5.7,15.4,5.4z
	"/>
</svg>